<svg xmlns="http://www.w3.org/2000/svg" viewBox="0 0 369 328"><path fill-rule="evenodd" d="M196.5 323.8C184.8 322.8 174.4 320.9 170.9 319.1C170.0 318.6 169.9 318.6 168.5 319.9C166.4 321.9 162.6 322.9 159.5 322.3C158.1 322.0 157.6 322.0 156.7 322.5C155.1 323.3 152.5 323.2 150.6 322.1L149.0 321.2L146.9 321.8C143.8 322.7 139.6 321.8 138.0 319.8C136.8 318.4 137.0 318.4 121.7 318.4C119.6 318.4 115.3 318.3 112.2 318.1C108.6 318.0 105.1 318.1 102.6 318.3C98.7 318.7 95.6 318.5 92.1 317.6C91.0 317.3 90.6 317.4 89.4 318.0C87.5 318.9 84.4 319.3 73.3 319.7C59.4 320.2 28.2 319.3 16.2 318.0C14.0 317.7 12.0 317.7 9.6 318.0C3.5 318.6 1.3 318.4 1.3 317.0C1.3 315.6 1.5 315.6 20.0 315.9C29.8 316.1 49.3 316.1 63.4 316.1C86.0 316.0 89.1 316.0 90.0 315.5C90.9 315.1 91.3 315.0 92.7 315.3C93.6 315.5 96.1 315.7 98.3 315.7L102.3 315.7L105.4 314.1C108.1 312.7 108.5 312.4 108.8 311.4C109.0 310.5 109.2 310.3 110.0 310.3C111.3 310.3 113.8 311.4 116.2 313.2C119.1 315.3 120.2 315.7 123.2 315.7C125.7 315.7 125.8 315.7 127.0 314.4C128.6 312.8 128.7 311.8 127.3 309.1C125.8 306.0 120.8 301.0 117.0 298.8C115.0 297.6 116.1 296.3 118.4 297.0C123.0 298.5 129.2 304.8 130.8 309.5C131.4 311.2 131.8 311.5 132.8 311.1C133.3 310.8 133.7 310.3 133.8 309.6C134.5 306.6 135.8 303.3 137.2 301.4C138.3 299.9 138.7 299.0 138.5 298.5C137.9 295.9 132.2 289.5 128.0 286.5C124.6 284.1 123.7 283.0 124.8 282.5C125.3 282.4 130.6 284.8 132.3 286.0C132.8 286.3 133.4 286.6 133.7 286.7C134.5 286.9 138.8 291.8 140.1 293.8C141.3 295.8 142.0 296.2 143.5 295.7C144.3 295.4 144.4 295.2 144.2 294.2C144.1 293.7 143.8 291.9 143.5 290.3C143.2 288.8 143.0 286.9 143.0 286.2C143.0 285.0 143.0 285.0 141.6 285.0C140.3 285.0 139.2 285.2 136.2 286.1C134.7 286.5 134.3 286.2 135.2 285.3C135.8 284.6 137.4 284.0 140.8 283.1C143.8 282.4 143.7 282.0 139.8 278.1C134.6 272.9 126.8 268.6 122.7 268.6C117.5 268.6 109.9 272.8 100.3 281.2C97.6 283.5 96.0 284.7 95.5 284.7C94.4 284.7 93.0 286.5 91.0 290.5C88.5 295.5 87.2 301.6 86.9 309.3C86.8 311.6 86.8 311.8 86.2 311.8C84.5 311.8 83.7 302.8 85.0 297.6C86.5 291.1 89.5 285.2 92.9 281.8C94.5 280.1 98.4 277.5 99.8 277.2C101.0 276.9 100.9 276.1 99.4 275.4C98.0 274.8 94.3 274.8 92.8 275.3C91.4 275.9 88.9 275.2 87.2 273.7C84.9 271.7 81.6 270.1 78.1 269.1C75.0 268.3 74.5 268.3 69.3 268.4C58.0 268.8 49.5 271.1 38.6 276.6C36.0 277.8 35.4 278.0 34.8 277.7C32.2 276.5 36.4 273.3 44.5 270.1C49.5 268.1 57.9 265.9 65.0 264.8C73.6 263.4 82.8 265.7 88.5 270.7C90.4 272.4 90.5 272.4 92.1 272.2C96.8 271.6 99.3 271.6 101.0 272.2C102.0 272.5 103.0 272.9 103.1 273.0C103.9 273.7 105.1 273.3 107.1 271.7C111.4 268.2 118.7 265.3 123.2 265.3C128.2 265.3 135.1 268.9 140.9 274.6C142.3 275.9 143.6 277.0 143.7 277.0C143.9 277.0 144.1 276.6 144.2 276.1C145.3 271.5 146.5 267.6 147.6 265.0C149.1 261.5 152.4 256.2 154.1 254.4L155.1 253.3L154.5 250.6C153.7 246.7 153.0 241.9 153.0 239.5C153.0 236.7 152.6 236.2 148.9 233.4C142.5 228.6 133.1 218.9 131.0 214.8C130.0 212.9 129.4 212.2 127.2 210.5C124.3 208.4 120.8 205.0 119.1 202.8L118.1 201.5L115.6 202.7C111.3 204.8 109.9 205.2 105.8 205.1C102.7 205.1 101.7 204.9 99.3 204.1C92.8 201.9 87.2 197.2 85.5 192.5C85.2 191.6 84.3 190.1 83.6 189.2C82.9 188.3 82.2 187.1 82.1 186.6C81.4 183.3 79.4 185.8 78.5 191.0C78.0 193.6 78.0 193.7 75.0 195.9C73.2 197.3 72.4 199.2 72.1 202.4C71.9 205.9 72.1 206.2 74.3 205.5C75.2 205.2 76.2 205.0 76.7 205.1C77.2 205.2 80.2 207.0 83.4 209.1C86.6 211.2 90.4 213.6 91.8 214.3C93.3 215.1 97.7 217.6 101.7 219.8C105.6 222.1 109.9 224.5 111.2 225.1C112.5 225.8 115.0 227.1 116.7 228.1C118.4 229.1 120.7 230.4 121.8 231.0C124.8 232.6 130.0 236.1 130.2 236.6C130.5 237.4 130.0 237.7 129.0 237.5C127.3 237.2 115.5 231.7 110.4 228.9C108.6 227.9 105.5 226.2 103.5 225.2C91.6 218.9 79.0 211.1 76.9 208.7C76.0 207.8 75.7 207.8 72.7 209.3C63.6 213.9 57.1 218.7 47.6 227.9C24.9 249.8 11.5 269.7 7.7 287.2C6.5 292.7 6.3 294.5 6.3 302.3C6.3 309.4 6.3 310.0 5.8 309.9C5.4 309.9 4.9 308.8 4.1 306.3C2.9 302.9 2.9 302.7 2.9 297.0C2.9 290.9 3.3 288.2 5.1 282.7C7.9 273.7 14.1 261.8 20.2 253.5C33.2 235.7 51.1 218.1 64.2 210.2C68.7 207.5 68.8 207.5 68.3 205.8C67.1 201.5 69.7 194.8 73.3 192.8C75.0 191.9 75.1 191.7 75.2 190.0C75.4 187.2 76.9 184.1 78.8 182.2C80.4 180.6 80.6 180.3 80.8 178.5C81.0 176.6 81.7 173.9 82.7 171.5C83.1 170.5 83.0 170.3 80.9 167.0C79.7 165.1 78.2 162.4 77.5 161.1C76.4 158.9 76.2 158.7 75.3 158.7C72.9 158.7 69.4 150.5 68.3 141.9C68.1 140.1 67.8 138.7 67.6 138.7C67.4 138.7 66.9 139.0 66.3 139.4C65.4 140.1 65.3 140.1 64.5 139.5C63.1 138.6 62.9 137.6 63.1 131.8C63.4 123.6 65.9 113.3 69.4 105.7C70.2 104.0 70.1 103.8 68.3 104.5C66.5 105.2 66.1 105.1 65.2 104.2C63.6 102.6 64.2 101.3 68.7 96.0C70.0 94.4 71.9 91.9 73.0 90.3C76.5 84.9 82.0 78.3 85.3 75.5C86.5 74.4 87.5 73.4 87.5 73.2C87.5 73.0 86.5 72.8 85.0 72.7C82.1 72.6 81.2 72.1 81.2 70.5C81.3 69.2 82.4 68.2 88.3 64.6C91.4 62.7 94.9 60.5 96.3 59.6C100.7 56.7 108.8 52.9 112.3 52.0C113.9 51.6 114.1 50.7 112.7 50.3C110.7 49.8 107.3 47.9 106.9 47.2C106.2 45.6 107.7 44.4 111.2 43.7C121.2 41.8 140.7 40.8 147.4 41.9C149.3 42.2 149.0 41.5 146.3 38.8C143.9 36.4 143.5 35.5 144.6 34.6C145.7 33.6 146.5 33.6 149.4 34.5C155.8 36.6 161.5 40.5 164.2 44.7C165.1 46.2 165.4 46.3 166.5 45.4C168.9 43.5 178.0 41.0 182.2 41.0C184.1 41.0 185.7 42.0 185.7 43.2C185.7 43.8 183.3 46.1 181.6 47.2C180.9 47.7 180.3 48.2 180.3 48.3C180.3 48.7 180.6 48.7 184.3 49.3C191.7 50.5 201.3 55.2 207.7 60.7C210.4 63.0 215.7 66.5 219.0 68.1C222.5 69.8 223.3 70.5 223.3 71.8C223.3 73.8 221.3 75.0 217.8 75.0L215.6 75.0L217.2 76.6C220.3 79.6 224.9 87.3 227.0 93.2C228.8 98.3 230.0 103.9 229.7 105.3C229.2 107.1 228.3 107.8 227.0 107.5L226.0 107.3L226.2 109.1C226.3 110.0 226.5 111.7 226.7 112.8C227.2 115.7 226.5 122.7 225.1 128.5C224.3 132.1 224.3 132.0 226.1 132.5C232.2 134.1 237.0 142.4 237.0 151.4C237.0 158.2 233.9 166.6 229.6 171.1C227.5 173.3 227.4 173.4 226.0 173.3C224.1 173.1 224.0 172.7 225.8 170.7C229.0 167.1 231.2 163.2 232.5 158.7C233.4 155.6 233.4 147.7 232.5 144.8C230.9 139.5 227.4 135.3 224.4 135.3C223.3 135.3 222.0 136.3 222.0 137.2C222.0 137.5 222.3 138.1 222.7 138.6C223.6 139.7 223.5 141.2 222.5 142.4C221.9 143.1 221.7 143.6 221.8 144.1C222.0 144.5 222.1 146.8 222.2 149.2C222.4 153.5 221.9 157.3 220.7 160.5C220.5 161.1 220.6 162.1 221.0 163.9C221.4 165.3 221.9 168.5 222.2 170.8C222.4 173.2 222.8 176.0 223.1 176.9C223.5 178.9 223.1 182.9 222.2 185.2C222.0 185.9 221.2 187.9 220.6 189.7C219.9 191.4 219.0 193.7 218.5 194.8C218.1 195.9 217.8 196.9 217.9 197.0C218.2 197.6 225.8 197.4 229.6 196.6C236.6 195.3 237.4 194.8 238.1 191.4C238.7 189.1 240.1 189.3 240.7 191.8C241.0 193.4 240.5 195.1 239.3 196.5C238.1 197.8 237.1 198.2 233.1 198.7C226.5 199.4 220.7 202.7 211.5 210.7C206.2 215.3 198.0 223.6 198.0 224.3C198.0 224.6 198.3 224.7 199.1 224.5C199.7 224.4 204.2 224.2 209.1 224.1L218.1 223.9L218.7 222.8C219.8 221.0 230.5 214.2 234.7 212.7C236.6 212.0 242.9 208.5 246.0 206.5C248.1 205.0 252.7 200.2 253.4 198.7C253.7 198.0 254.2 196.3 254.4 195.1C255.6 188.0 251.2 182.3 240.8 177.5C234.4 174.5 234.1 174.2 237.1 174.1C240.7 173.8 246.7 176.1 250.9 179.4C255.8 183.2 258.6 188.1 258.7 193.0C258.7 194.5 258.7 194.6 260.8 196.1C266.0 199.9 268.5 206.2 266.7 211.1C265.9 213.2 264.7 214.5 263.7 214.2C262.7 213.9 262.6 213.1 263.2 211.1C263.9 208.7 263.6 205.9 262.5 203.5C261.7 201.7 258.8 198.5 257.6 198.1C256.7 197.9 255.8 198.8 255.3 200.5C254.8 202.2 250.6 206.6 247.0 209.3C245.5 210.4 242.3 212.3 239.7 213.7C237.1 215.0 234.2 216.5 233.2 217.1C232.3 217.6 229.3 219.2 226.7 220.6C220.0 224.0 219.8 224.3 223.3 225.0C225.2 225.3 230.7 227.0 233.1 227.9C234.4 228.3 234.4 228.3 237.1 226.7C246.5 221.0 261.9 216.4 265.2 218.1C266.8 218.9 267.9 220.6 268.8 223.2C269.4 225.3 269.5 226.2 269.5 233.5C269.4 243.3 268.8 247.5 266.0 255.3L265.3 257.1L267.3 260.5C269.7 264.6 271.0 267.3 272.0 270.6C272.4 271.9 272.9 273.1 273.0 273.2C273.2 273.3 274.5 273.1 275.9 272.8C278.7 272.2 283.0 272.3 287.2 273.2C288.4 273.5 290.7 273.8 292.1 273.9C294.5 274.1 294.7 274.0 295.7 273.2C296.5 272.5 297.1 272.3 298.5 272.3C300.4 272.3 300.7 272.8 299.1 273.1C294.6 274.2 294.6 274.6 298.6 275.8C308.4 278.8 312.8 280.6 314.1 282.4C314.8 283.3 314.8 283.3 314.2 284.0C313.3 285.0 312.9 284.9 308.5 282.9C301.4 279.7 298.7 278.9 286.8 276.6C282.3 275.7 274.7 275.5 274.0 276.2C273.6 276.6 273.6 277.1 274.0 278.9C274.2 280.2 274.5 283.2 274.5 285.6C274.5 288.0 274.7 290.2 274.9 290.3C275.0 290.4 276.3 291.0 277.8 291.5C280.7 292.5 283.7 294.6 283.7 295.7C283.7 296.6 282.9 296.5 278.2 294.7C275.7 293.7 274.4 293.3 274.1 293.5C273.8 293.7 273.3 295.0 272.9 296.3C272.3 298.8 270.4 303.0 269.4 304.1C268.6 305.0 269.1 305.7 271.5 307.2C272.8 307.9 273.9 308.9 274.1 309.3C274.8 310.9 273.4 311.5 271.7 310.4C271.2 310.1 269.9 309.3 268.9 308.7L266.9 307.6L264.5 310.1C263.2 311.4 261.3 313.2 260.2 314.0C259.2 314.7 258.4 315.5 258.5 315.6C258.8 316.2 306.7 316.3 327.9 315.8L337.7 315.6L338.7 313.5C341.6 307.0 341.2 299.1 337.6 288.7C333.8 278.0 324.2 265.1 306.8 247.3C300.8 241.2 299.9 240.0 301.2 239.5C302.6 238.9 304.2 240.1 311.8 247.8C325.8 261.8 333.5 271.7 338.7 282.2C340.6 286.2 341.5 288.4 343.3 294.1C343.5 294.7 343.9 297.4 344.2 300.1C344.8 305.1 344.8 305.2 344.1 308.6C343.7 310.5 343.1 312.7 342.7 313.5C341.4 316.1 340.8 315.9 354.2 315.7C366.8 315.6 367.7 315.6 367.7 317.0C367.7 318.3 366.4 318.4 353.7 318.3C347.0 318.3 338.9 318.4 335.8 318.6C319.1 319.7 283.7 319.8 275.0 318.8C274.0 318.7 267.9 318.6 261.4 318.5C251.2 318.5 249.6 318.4 249.2 318.0C248.3 317.1 248.8 316.6 253.6 313.8C258.3 311.1 262.9 307.1 262.6 306.2C262.5 306.0 261.5 305.4 260.4 305.1C259.3 304.7 257.8 303.9 257.1 303.4C256.0 302.5 251.2 300.4 246.3 298.8C243.7 297.8 242.9 296.7 244.5 295.9C246.0 295.3 252.6 297.7 259.8 301.6C262.9 303.2 264.4 303.8 265.0 303.4C265.9 302.9 269.2 296.4 269.7 294.3C270.2 292.0 270.1 291.9 267.5 291.2C263.7 290.1 263.8 289.3 267.8 289.3C270.0 289.3 270.6 289.2 270.8 288.8C271.3 287.4 270.9 282.9 269.9 278.0C268.5 271.6 267.4 268.6 264.1 262.1L261.6 257.0L262.3 255.5C262.6 254.7 263.2 252.6 263.6 250.8C264.0 249.0 264.5 247.0 264.7 246.3C266.1 240.8 266.4 228.2 265.2 224.0C264.5 221.4 263.8 220.9 261.2 221.0C255.4 221.1 248.1 224.0 238.9 229.9C236.2 231.6 233.7 233.1 233.4 233.2C233.1 233.4 232.5 232.9 231.7 232.1C230.7 230.9 230.1 230.6 227.5 229.9C216.6 226.8 206.2 226.5 194.3 229.0C191.6 229.6 191.0 229.8 190.2 230.8C189.4 231.6 188.3 232.2 185.7 233.2C177.2 236.2 172.2 239.2 167.2 244.1C164.5 246.8 163.7 247.3 163.0 247.3C162.3 247.2 162.1 247.0 162.1 246.2C162.0 245.0 164.5 241.9 167.7 239.5C169.7 237.9 170.2 237.0 169.0 237.0C168.6 237.0 168.3 236.8 168.3 236.5C168.3 235.9 169.5 235.2 171.1 235.0C171.9 234.9 172.5 234.7 172.6 234.5C172.7 234.1 169.7 231.5 163.4 226.3C161.2 224.5 160.8 223.6 162.3 223.4C163.8 223.2 169.5 227.0 174.0 231.2C175.5 232.5 176.6 233.3 177.1 233.3C177.5 233.3 179.0 232.7 180.5 232.0C181.9 231.3 183.3 230.7 183.5 230.7C183.8 230.7 184.0 230.4 184.0 230.0C184.0 228.4 171.1 221.9 164.3 220.0C161.3 219.1 158.3 219.1 157.6 219.9C156.4 221.2 155.9 224.8 155.9 232.0C155.9 238.8 156.1 241.4 157.5 248.6C158.3 252.4 158.2 253.9 157.1 255.3C153.5 259.8 151.3 264.4 148.4 272.9C146.2 279.4 146.1 282.0 148.0 282.0C149.9 282.0 151.0 282.4 151.0 283.0C151.0 283.8 150.0 284.3 148.6 284.3C146.8 284.3 146.6 284.8 147.0 288.2C147.4 291.7 148.1 293.9 149.0 294.2C149.5 294.3 149.7 294.7 149.7 295.7C149.7 296.5 149.9 297.4 150.1 297.6C150.4 297.9 151.2 299.1 151.9 300.2C153.0 301.8 153.2 302.3 152.9 302.8C152.6 303.5 153.0 304.0 154.2 304.0C154.6 304.0 155.9 304.9 157.1 306.0C159.8 308.4 161.3 309.4 165.2 311.6C168.8 313.6 169.7 314.6 169.7 316.4C169.7 317.1 169.8 317.7 170.1 317.8C170.3 317.9 173.3 318.2 176.7 318.5C180.1 318.8 184.9 319.2 187.3 319.5C203.6 321.2 222.8 321.0 238.6 319.0C244.5 318.2 245.1 318.2 246.8 318.7C249.0 319.3 248.1 320.0 244.0 321.1C232.7 323.9 211.8 325.1 196.5 323.8ZM156.6 317.6C157.2 316.0 157.5 316.0 158.5 317.7C159.3 318.9 159.4 319.0 161.1 319.0C163.3 319.0 165.1 318.5 165.8 317.7C166.4 317.1 166.4 317.0 165.5 316.2C165.0 315.8 163.3 314.5 161.6 313.5C155.7 309.8 152.6 307.3 151.0 304.7L150.4 303.9L148.6 305.1C147.6 305.8 146.7 306.3 146.4 306.3C145.4 306.3 145.7 305.5 147.2 304.1C148.7 302.7 148.7 302.7 148.2 301.9C147.9 301.5 147.2 300.5 146.6 299.6C145.1 297.3 144.5 297.4 141.5 300.4C138.4 303.5 137.2 305.9 137.1 309.2C136.8 314.6 139.3 318.0 144.1 318.5C146.6 318.8 147.1 318.4 146.8 316.5C146.6 314.9 147.1 313.4 148.1 313.1C149.1 312.8 149.7 313.7 150.0 315.8C150.3 318.6 151.5 319.4 154.7 319.0C155.9 318.9 156.1 318.8 156.6 317.6ZM112.6 315.1C112.8 314.6 111.7 314.3 111.1 314.7C110.9 314.9 110.7 315.2 110.7 315.4C110.7 315.8 112.4 315.6 112.6 315.1ZM134.9 315.2C135.2 314.4 134.4 313.6 133.5 313.9C132.6 314.1 131.6 315.0 131.9 315.4C132.2 315.9 134.7 315.7 134.9 315.2ZM156.3 299.7C156.3 297.8 160.3 295.5 165.1 294.5C166.8 294.1 167.1 294.1 167.5 294.6C168.3 295.4 167.4 296.0 163.3 297.5C161.4 298.2 159.3 299.0 158.6 299.4C157.2 300.1 156.3 300.2 156.3 299.7ZM209.0 294.4C207.3 293.8 206.0 293.0 204.9 291.7C204.3 290.9 203.7 290.3 203.6 290.3C203.4 290.3 202.4 291.1 201.3 291.9C199.3 293.6 197.0 294.6 196.4 294.2C195.6 293.7 196.1 293.0 197.8 292.1C198.7 291.5 200.1 290.4 200.8 289.7C202.1 288.4 202.2 288.2 202.3 286.0L202.4 283.8L201.0 282.8C200.2 282.3 199.2 281.3 198.8 280.6L198.2 279.3L199.1 278.4C200.0 277.5 200.1 277.5 203.5 277.5C206.5 277.5 207.1 277.6 207.9 278.2C209.4 279.3 209.3 280.4 207.6 281.7C204.7 284.1 204.7 284.1 204.9 286.2C205.2 289.3 206.7 291.1 210.4 293.0C212.4 294.0 211.3 295.1 209.0 294.4ZM154.1 292.7C152.8 291.9 157.3 290.1 162.3 289.3C166.2 288.8 167.1 288.9 167.3 290.1C167.4 291.2 167.7 291.1 160.7 292.0C157.8 292.4 155.3 292.8 155.0 292.8C154.7 292.9 154.3 292.9 154.1 292.7ZM243.1 287.8C242.6 286.4 244.4 286.0 252.0 286.0C256.7 286.1 257.8 286.3 257.9 287.1C258.2 288.2 257.3 288.3 250.2 288.3C244.4 288.3 243.3 288.3 243.1 287.8ZM163.1 285.0C159.6 284.4 158.9 284.0 159.8 283.1C160.7 282.2 164.5 282.1 166.5 282.9C168.2 283.7 168.7 284.5 167.8 285.2C167.1 285.7 167.1 285.7 163.1 285.0ZM205.9 280.5C206.2 279.8 205.9 279.6 204.1 279.4C202.1 279.3 201.2 279.8 202.1 280.5C203.0 281.2 205.6 281.2 205.9 280.5ZM225.0 278.8C221.3 277.1 219.9 274.9 219.9 271.0C219.8 267.9 220.4 266.3 222.1 264.4C225.9 260.3 230.7 260.1 235.4 263.7C239.3 266.8 239.3 273.4 235.5 277.1C232.9 279.7 228.4 280.4 225.0 278.8ZM180.3 278.0C175.2 276.4 172.6 272.0 173.7 266.9C174.0 265.4 174.4 264.6 175.7 263.1C177.8 260.9 179.5 260.0 182.2 259.7C187.6 259.3 192.5 264.4 191.9 269.7C191.5 273.3 189.5 276.0 186.4 277.4C184.7 278.1 181.6 278.5 180.3 278.0ZM231.9 276.8C236.8 274.8 237.8 268.4 233.7 265.0C231.8 263.4 230.5 263.8 231.5 265.7C232.3 267.1 232.3 270.2 231.5 271.6C231.0 272.6 229.5 273.7 228.5 273.7C227.7 273.7 226.1 272.0 225.7 270.8C225.3 269.7 225.9 266.7 226.7 265.8C227.2 265.3 227.0 264.0 226.5 264.0C223.6 264.0 221.0 268.7 222.0 272.3C223.1 276.4 227.7 278.6 231.9 276.8ZM184.3 275.9C188.0 275.0 190.0 272.4 190.0 268.6C190.0 267.1 189.8 266.5 189.0 265.4C187.9 263.9 186.8 263.0 185.9 263.0C185.2 263.0 185.2 263.3 186.0 266.3C187.3 271.4 181.8 274.6 179.5 270.1C178.8 268.6 178.8 268.1 180.2 265.4C180.9 263.8 181.2 262.8 181.0 262.6C180.5 262.0 178.9 262.7 177.6 264.0C173.9 267.9 175.1 274.0 180.0 275.7C182.2 276.4 182.3 276.4 184.3 275.9ZM84.8 263.1C84.6 262.9 83.9 261.6 83.2 260.2C81.6 256.3 76.3 245.9 74.4 242.6C72.3 239.0 72.1 237.9 73.9 239.2C74.8 239.8 78.5 244.6 80.1 247.2C84.5 254.5 87.6 264.8 84.8 263.1ZM138.0 262.5C137.8 262.0 137.7 259.9 137.7 257.7C137.7 255.6 137.5 250.5 137.3 246.5C136.9 238.8 137.0 238.0 138.4 236.4C139.4 235.3 141.0 235.4 142.3 236.6C143.6 237.7 145.1 241.7 144.8 243.2C144.7 243.7 144.6 247.9 144.6 252.5C144.5 260.9 144.2 262.9 143.2 262.6C142.6 262.4 142.4 260.9 142.4 255.3C142.3 243.8 141.6 238.3 140.3 238.7C140.1 238.8 139.9 242.8 139.9 250.5C139.8 259.9 139.7 262.3 139.4 262.8C138.7 263.6 138.4 263.5 138.0 262.5ZM294.6 234.6C292.9 233.4 290.2 231.3 288.6 229.9C286.8 228.2 284.0 226.2 280.3 224.0C277.3 222.1 274.5 220.3 274.2 220.0C272.7 218.6 274.9 217.7 277.1 218.9C278.8 219.7 286.2 224.9 289.8 227.7C293.8 230.8 299.2 236.7 298.1 236.7C297.9 236.7 296.4 235.7 294.6 234.6ZM152.5 229.1C152.6 227.7 152.8 225.7 153.0 224.7C153.4 222.6 153.3 222.5 151.9 222.2C149.7 221.7 144.4 220.0 141.4 218.7C138.0 217.2 137.7 217.1 137.7 217.7C137.7 218.4 151.2 231.7 152.0 231.7C152.1 231.7 152.4 230.5 152.5 229.1ZM190.5 226.5C191.8 226.1 192.9 225.5 193.1 225.3C193.3 224.9 193.1 220.8 192.8 220.2C192.5 219.8 191.8 220.0 189.3 221.0C187.9 221.5 185.8 222.2 184.5 222.4C183.1 222.7 182.2 223.1 182.2 223.3C182.2 223.7 187.2 227.3 187.9 227.3C188.1 227.3 189.3 227.0 190.5 226.5ZM184.2 219.3C187.2 218.5 193.1 215.8 197.0 213.5C201.4 210.8 206.1 206.5 210.2 201.7C216.1 194.5 218.4 191.3 219.2 188.5C219.8 186.4 220.8 176.8 220.8 173.8C220.7 171.2 219.7 164.3 219.3 163.9C219.1 163.6 218.7 163.9 216.3 166.5C213.8 169.3 212.3 170.2 206.6 172.0C201.8 173.6 200.9 173.8 198.5 173.8C190.0 173.8 183.6 169.1 180.1 160.2C179.5 158.8 179.0 157.3 179.0 157.0C179.0 155.9 177.7 155.2 175.5 155.1C173.0 154.9 171.4 155.6 169.3 157.8L167.9 159.1L168.2 161.3C168.7 166.2 168.2 171.2 166.9 174.2C166.1 175.9 163.5 179.7 163.0 179.7C162.9 179.7 161.7 180.7 160.4 181.8C156.0 185.7 151.7 187.1 144.3 187.1C140.2 187.2 139.7 187.1 137.5 186.2C131.3 183.8 125.7 177.3 124.2 170.7C123.6 168.2 123.7 168.3 121.8 167.8C120.1 167.4 114.7 168.2 114.4 168.9C114.3 169.3 116.5 176.5 118.3 181.7C119.5 185.1 119.5 185.3 118.6 186.5C116.5 189.2 112.5 186.1 106.8 177.2C103.3 171.9 103.2 171.7 101.4 170.2C96.7 166.1 91.1 166.3 87.2 170.7C85.0 173.2 84.2 175.4 84.2 179.5C84.3 188.6 88.5 195.3 96.8 199.3C104.5 203.1 111.3 202.7 116.7 198.4C117.1 198.0 117.8 197.7 118.1 197.7C118.5 197.7 120.8 199.6 123.8 202.6C132.2 210.8 138.7 214.7 149.5 217.9C154.2 219.3 154.1 219.3 155.8 217.7C158.2 215.7 160.3 215.5 166.0 217.0C168.1 217.5 171.1 218.5 172.7 219.1C175.4 220.3 175.6 220.3 178.5 220.2C180.2 220.1 182.8 219.7 184.2 219.3ZM197.4 219.7C197.6 219.3 199.7 217.3 202.1 215.3C204.4 213.3 206.6 211.2 207.0 210.6L207.8 209.6L207.0 210.0C206.6 210.2 204.9 211.5 203.1 213.0C201.3 214.4 199.1 216.0 198.3 216.5C196.7 217.5 195.8 218.9 196.1 219.8C196.4 220.5 196.9 220.5 197.4 219.7ZM314.7 218.3C314.1 217.6 314.3 216.7 315.1 216.2C316.1 215.5 322.6 214.4 327.1 214.1C330.5 213.9 331.7 214.3 331.7 215.7C331.7 217.1 330.6 217.4 324.3 218.0C317.0 218.8 315.3 218.8 314.7 218.3ZM309.1 206.6C308.4 205.9 308.6 205.5 310.1 203.9C311.4 202.6 321.4 194.5 323.9 192.7C325.3 191.8 326.5 192.1 326.9 193.5C327.2 194.7 326.6 195.2 320.7 199.8C311.8 206.7 310.1 207.7 309.1 206.6ZM215.8 203.1C219.1 200.6 219.6 199.3 217.0 199.3C216.6 199.3 212.5 204.0 211.5 205.6C211.1 206.3 212.4 205.6 215.8 203.1ZM300.9 200.0C299.7 199.3 300.2 197.5 303.8 189.0C306.1 183.5 306.7 182.7 307.9 182.7C308.7 182.7 309.7 183.8 309.7 184.7C309.7 184.9 308.9 186.7 308.0 188.7C307.0 190.6 305.6 193.7 304.8 195.7C302.8 200.2 302.3 200.8 300.9 200.0ZM175.8 199.4C174.9 199.2 174.3 198.6 174.6 198.3C174.7 198.2 176.5 197.7 178.5 197.4C182.1 196.6 184.9 195.7 188.4 193.9C191.2 192.6 192.0 193.3 189.9 195.3C187.0 198.0 179.4 200.3 175.8 199.4ZM1.8 193.2C1.4 192.6 1.4 192.4 1.8 191.8C2.2 191.2 2.7 191.2 13.4 190.8C20.2 190.6 24.8 190.3 25.2 190.1C25.6 189.9 26.1 189.8 26.4 190.0C26.6 190.2 31.9 190.4 38.0 190.4C49.7 190.6 55.6 191.0 57.8 191.8C59.1 192.2 60.0 193.1 59.6 193.5C59.4 193.7 46.5 193.8 30.8 193.8C2.8 193.8 2.2 193.8 1.8 193.2ZM26.0 184.9C26.0 183.1 26.2 180.0 26.5 178.0C27.6 170.3 28.1 167.1 28.5 165.4C28.8 164.5 29.0 163.0 29.0 162.0L29.0 160.3L15.6 160.3C0.7 160.3 0.5 160.3 1.2 158.4C1.5 157.6 1.6 157.5 3.7 157.4C7.7 157.3 7.3 157.8 7.3 151.4C7.4 145.4 7.8 137.9 8.2 136.9C8.6 135.8 9.5 136.4 9.5 137.8C9.4 140.7 9.4 152.3 9.4 154.5L9.5 156.8L12.2 157.1C13.6 157.2 16.1 157.3 17.7 157.2C22.0 156.9 28.4 157.5 29.7 158.2C31.8 159.4 32.6 162.9 31.7 166.8C31.0 169.9 29.4 179.1 29.5 179.3C29.6 179.4 33.6 179.5 38.4 179.5L47.2 179.5L47.2 180.3L47.2 181.2L42.7 181.4C40.2 181.5 36.0 181.7 33.3 181.8L28.5 181.9L28.0 183.9C27.7 185.0 27.1 186.4 26.7 187.0L26.0 188.2L26.0 184.9ZM151.1 184.5C156.7 183.2 159.3 181.3 162.2 176.4C163.8 173.8 164.2 172.8 165.0 169.2C166.1 164.8 165.6 161.5 163.2 157.4C161.4 154.2 159.4 152.4 156.3 151.1C148.2 147.7 137.8 150.2 130.7 157.3C127.9 160.1 126.7 162.7 126.7 165.7C126.7 174.8 133.1 182.6 142.2 184.8C143.7 185.1 148.9 185.0 151.1 184.5ZM102.6 182.6C101.8 182.1 100.4 181.1 99.4 180.5C97.7 179.3 97.4 178.9 98.0 178.5C98.6 178.2 101.7 179.8 103.5 181.4C106.0 183.6 105.3 184.5 102.6 182.6ZM114.7 180.9C114.7 180.6 114.4 179.8 114.0 178.9C113.3 177.3 112.0 172.1 112.0 170.9C112.0 169.3 111.4 168.9 109.0 169.3C105.7 169.8 105.6 170.1 108.2 173.4C109.4 174.9 111.2 177.3 112.2 178.8C114.0 181.2 114.7 181.8 114.7 180.9ZM183.4 180.8C183.3 180.5 183.4 179.9 183.7 179.5C186.0 176.0 185.9 174.5 183.3 171.8C180.9 169.3 182.2 168.3 185.2 170.3C188.8 172.8 189.2 176.9 186.2 179.9C184.7 181.4 183.8 181.7 183.4 180.8ZM150.6 171.7C149.4 170.4 148.1 164.5 148.4 162.1C149.0 158.9 152.2 158.8 153.4 161.9C154.0 163.6 155.0 167.8 155.0 169.1C155.0 171.5 152.0 173.3 150.6 171.7ZM205.6 170.0C208.6 168.9 211.5 167.2 213.5 165.2C215.1 163.6 217.0 160.8 217.0 160.2C217.0 159.6 216.1 155.7 215.0 151.9C214.1 148.5 213.4 144.3 213.0 140.7C212.7 137.4 212.7 137.4 209.0 136.2C202.3 133.8 195.0 135.2 188.5 140.1C184.6 143.0 182.0 148.0 182.0 152.5C182.0 157.0 184.1 162.3 187.2 165.7C191.6 170.4 199.5 172.3 205.6 170.0ZM87.0 166.9C89.0 165.1 95.8 163.2 98.1 163.8C98.8 164.0 100.8 165.2 103.5 167.1C103.8 167.4 104.8 167.2 106.4 166.7C107.7 166.3 109.2 165.8 109.7 165.7C110.5 165.5 110.5 165.4 110.5 163.1C110.5 159.6 111.3 159.3 112.2 162.5C112.5 163.6 112.9 164.4 113.1 164.5C113.7 164.8 122.4 162.7 122.9 162.2C123.1 162.0 123.5 161.2 123.8 160.3C126.3 153.5 138.9 146.1 148.5 145.9C154.1 145.8 159.4 147.9 163.9 152.1L166.4 154.4L167.3 153.6C168.9 152.0 171.9 150.9 175.3 150.7L178.4 150.5L179.0 148.1C179.8 144.9 181.3 142.2 183.6 139.6C187.7 135.1 192.8 132.9 202.0 131.4C203.6 131.2 208.2 131.8 210.6 132.6C213.0 133.3 213.1 133.1 212.5 129.5C211.9 126.1 211.9 124.0 212.3 124.0C212.7 124.0 214.1 127.9 215.0 131.5C215.6 134.1 215.9 134.6 216.9 135.6C218.3 136.7 219.0 136.9 219.0 136.2C219.0 135.9 219.4 134.8 219.8 133.8C220.3 132.8 221.2 129.5 221.9 126.6C223.1 121.4 223.1 120.9 223.1 115.0C223.1 110.2 223.0 108.3 222.5 106.5C221.2 101.2 221.2 99.5 222.4 99.1C222.9 99.0 223.4 99.3 224.4 100.2C226.1 101.8 226.0 101.4 224.2 96.1C221.7 89.1 218.0 82.1 213.7 76.4C212.2 74.4 212.0 73.8 212.9 74.1C215.0 74.8 215.1 74.8 214.9 74.3C214.6 73.5 215.2 72.9 216.5 72.7C218.4 72.4 218.4 71.6 216.5 70.9C214.8 70.2 209.1 66.4 203.2 62.0C194.9 55.8 186.9 52.6 177.2 51.5C173.6 51.1 173.5 50.3 176.6 47.4C177.8 46.3 178.7 45.2 178.6 45.1C178.1 44.6 170.7 45.6 168.6 46.5C166.1 47.6 163.6 48.0 162.8 47.5C162.4 47.4 160.9 45.9 159.3 44.4C156.7 41.7 153.5 39.5 152.6 39.7C152.4 39.8 153.3 40.9 154.7 42.3C157.7 45.1 158.3 46.1 157.7 46.8C157.0 47.6 155.0 47.2 152.2 45.8C147.3 43.3 140.5 42.4 134.3 43.4C133.1 43.5 130.7 43.9 129.0 44.2C127.3 44.4 124.0 45.0 121.8 45.5C119.6 45.9 117.0 46.4 115.9 46.5C113.0 46.9 113.0 47.7 115.8 48.2C118.4 48.6 120.9 50.6 120.2 51.7C119.8 52.2 117.1 53.5 114.5 54.3C109.0 56.2 88.0 67.9 88.0 69.1C88.0 69.6 91.4 70.0 94.8 70.0C98.0 70.0 97.6 70.9 93.3 73.5C86.9 77.2 80.3 84.7 72.2 97.1C70.8 99.4 70.7 99.5 71.9 99.2C74.0 98.6 74.1 101.3 72.0 106.8C70.3 111.1 68.5 118.3 67.5 124.5C66.2 132.7 66.2 133.9 67.9 131.7C68.8 130.5 69.1 130.5 69.8 131.2C70.2 131.6 70.3 132.4 70.3 134.5C70.3 136.0 70.6 139.0 71.0 141.2C71.7 145.4 74.2 155.2 74.8 155.9C75.3 156.6 75.6 156.4 75.7 155.2C75.9 153.4 76.7 154.0 79.0 157.8C81.0 161.3 83.8 165.4 84.9 166.8C85.5 167.5 86.3 167.5 87.0 166.9ZM196.9 159.0C196.0 157.9 195.9 157.7 195.4 155.2C194.2 149.4 194.8 147.0 197.4 147.0C199.3 147.0 201.1 150.8 201.1 155.2C201.2 157.8 201.1 158.0 200.2 159.0C199.0 160.3 198.0 160.3 196.9 159.0ZM263.4 158.8C262.8 158.3 262.2 157.4 262.0 156.7C261.7 155.9 261.5 147.0 261.3 128.2C261.0 98.3 260.5 52.2 260.2 35.8C260.0 25.0 260.1 24.2 261.4 22.3C262.3 20.9 265.3 20.2 281.7 17.7C299.3 14.9 306.1 13.9 313.5 12.8C315.3 12.5 318.1 12.1 319.7 11.8C331.2 9.8 348.6 7.2 352.8 6.8C356.0 6.5 358.9 7.3 360.1 8.7L360.9 9.6L361.1 35.9C361.8 111.7 361.9 147.6 361.6 149.2C361.5 150.1 361.1 151.2 360.7 151.7C359.8 152.9 357.1 154.3 354.7 154.6C350.1 155.4 313.9 157.6 289.0 158.7C284.5 158.9 278.0 159.2 274.5 159.3C265.0 159.8 264.6 159.8 263.4 158.8ZM270.1 157.5C271.0 157.4 274.0 157.1 276.7 157.0C279.3 156.8 283.2 156.6 285.3 156.4C290.3 155.9 302.5 155.1 307.2 154.8C311.4 154.6 318.2 154.2 327.0 153.5C342.7 152.3 349.7 151.9 353.9 152.1C358.9 152.4 359.1 152.3 358.6 149.9C358.5 149.1 358.2 117.4 358.1 79.3C358.0 30.5 357.8 10.0 357.6 9.7C357.3 9.4 356.8 9.3 355.7 9.5C352.6 9.9 347.1 10.7 343.0 11.3C340.7 11.6 337.9 12.0 336.7 12.2C331.7 12.7 319.8 14.4 315.0 15.3C309.9 16.3 289.7 19.7 286.5 20.2C285.6 20.3 282.6 20.7 279.8 21.2C277.1 21.7 272.7 22.2 270.2 22.5C267.6 22.8 265.1 23.1 264.5 23.3L263.5 23.5L263.2 29.0C263.1 32.0 263.1 43.1 263.2 53.7C263.3 64.2 263.4 91.7 263.5 114.8L263.6 156.8L264.4 157.4C265.1 158.0 265.1 158.0 270.1 157.5ZM111.6 153.3C111.5 153.1 111.7 152.3 111.9 151.5C112.2 150.8 113.1 147.3 114.0 143.8C117.0 132.7 117.3 131.6 118.0 130.1C118.7 128.5 119.6 128.2 119.8 129.4C119.9 129.8 120.1 131.0 120.3 132.0C120.5 133.0 120.8 134.8 120.9 135.9C121.0 137.1 121.2 138.0 121.3 138.0C121.8 138.0 127.0 130.6 135.0 118.7C143.4 106.3 144.0 105.6 144.0 109.2C144.0 110.8 143.8 111.4 143.1 112.4C142.7 113.0 141.3 115.1 140.2 117.0C136.8 122.5 131.5 130.4 127.3 136.0C122.8 141.9 121.2 143.7 120.3 143.7C119.4 143.7 118.6 142.2 118.4 140.3C118.0 136.4 116.9 138.1 116.0 143.9C115.1 149.3 113.5 153.7 112.4 153.7C112.0 153.7 111.7 153.5 111.6 153.3ZM219.6 149.4C219.4 145.9 219.0 144.8 218.3 145.6C217.9 146.0 218.3 152.2 218.8 153.0C219.5 154.0 219.7 152.7 219.6 149.4ZM10.0 152.1C10.0 151.5 12.5 146.0 13.3 144.8C14.4 143.3 18.4 140.0 19.2 140.0C19.9 140.0 19.8 140.5 18.9 141.6C17.5 143.3 16.2 145.3 16.4 145.6C16.8 145.9 20.7 144.6 23.2 143.4C26.2 141.8 31.3 136.8 33.5 133.2C35.6 129.8 35.5 129.5 31.9 129.8C25.4 130.4 18.2 134.1 16.1 137.9C14.9 140.1 14.0 139.6 14.0 136.7C14.0 133.5 20.6 129.2 27.8 127.8C31.8 127.0 35.9 127.3 36.9 128.5C37.9 129.7 37.9 131.1 36.7 133.6C32.9 141.6 24.9 147.5 17.4 147.9C14.4 148.1 14.3 148.1 13.6 149.1C12.1 151.3 10.0 153.1 10.0 152.1ZM3.3 146.9C1.6 144.8 1.4 144.4 1.3 141.5C1.2 137.9 1.2 137.9 2.1 138.1C3.5 138.3 6.1 147.8 4.8 148.2C4.6 148.3 3.9 147.7 3.3 146.9ZM123.2 146.2C122.1 145.1 122.1 144.8 123.3 142.9C126.0 138.7 136.5 133.6 144.5 132.6C149.8 132.0 153.2 132.9 152.9 134.9C152.8 136.2 151.4 136.8 147.2 137.7C140.3 139.1 133.2 141.7 127.6 145.1C125.9 146.1 124.3 147.0 124.2 147.0C124.1 147.0 123.6 146.6 123.2 146.2ZM308.3 141.5C306.3 140.6 303.9 137.8 304.2 136.8C304.5 136.0 305.3 136.3 306.9 138.0C309.9 140.9 313.5 140.5 315.7 137.0C317.4 134.2 318.9 135.0 317.5 137.9C315.8 141.3 311.6 142.9 308.3 141.5ZM11.8 133.5C11.7 133.2 12.0 132.3 12.6 131.4C17.2 124.4 19.9 118.7 20.8 114.5C21.2 112.7 21.6 104.2 21.3 103.9C20.8 103.3 16.8 106.1 14.0 109.0C9.1 114.0 6.6 119.5 6.0 126.8C5.8 129.0 5.7 131.0 5.7 131.2C6.1 133.3 4.6 133.2 2.8 130.9C1.1 128.9 0.9 128.0 2.1 128.0C3.1 128.0 3.2 127.7 3.5 124.7C3.7 122.4 2.9 118.2 1.8 115.5C1.2 114.0 1.2 111.3 1.8 111.3C2.5 111.3 3.2 112.5 4.2 115.5C4.7 117.1 5.3 118.3 5.5 118.3C5.7 118.3 6.3 117.2 6.9 115.9C8.6 112.1 11.0 108.7 13.8 106.1C16.5 103.6 20.6 101.0 21.8 101.0C25.3 101.0 24.9 113.9 21.1 123.2C18.5 129.7 12.8 136.0 11.8 133.5ZM306.0 131.3C305.1 129.7 306.5 127.4 307.5 128.8C308.3 129.8 308.0 131.8 307.1 131.9C306.6 132.0 306.2 131.8 306.0 131.3ZM314.1 130.9C313.0 129.9 313.9 127.4 315.1 127.9C316.1 128.2 315.7 131.3 314.7 131.3C314.6 131.3 314.3 131.2 314.1 130.9ZM144.4 129.5C143.9 129.1 143.8 128.5 143.9 122.3C143.9 115.6 144.3 112.7 145.2 112.7C145.4 112.7 145.7 113.1 145.8 113.6C146.2 115.5 146.7 122.4 146.5 123.6C146.1 126.0 146.4 125.9 153.0 120.5C158.5 115.9 165.5 107.9 169.4 101.6C170.3 100.1 172.1 96.7 173.4 94.0C176.8 86.8 176.8 86.8 177.9 86.8C178.6 86.8 178.8 87.0 179.0 87.7C179.2 88.3 179.5 88.5 180.5 88.7C184.6 89.2 197.1 99.8 203.1 107.8C206.0 111.6 206.1 111.4 204.8 105.8C203.8 101.5 203.8 100.1 204.6 99.8C205.8 99.3 208.2 104.1 210.2 110.7C211.8 116.2 211.8 116.0 211.2 117.4C210.5 119.0 210.1 119.0 209.3 117.2C208.6 115.5 208.2 115.3 207.7 116.3C207.0 117.6 206.1 117.1 203.9 114.3C196.3 104.4 189.1 97.0 183.9 93.7C182.0 92.5 181.1 92.4 180.8 93.3C180.6 94.1 179.8 94.3 178.7 93.9C177.6 93.5 177.2 93.9 175.1 98.0C169.7 108.6 161.3 118.8 152.5 125.4C147.5 129.2 145.4 130.2 144.4 129.5ZM179.0 128.8C177.2 126.6 183.9 121.8 191.5 119.8C198.9 118.0 206.0 119.2 206.0 122.4C206.0 123.8 205.0 124.1 200.5 124.2C195.0 124.2 190.7 125.2 183.3 128.2C180.1 129.5 179.6 129.5 179.0 128.8ZM306.5 122.7C306.1 122.5 305.5 122.0 305.1 121.6C303.8 120.2 305.0 118.9 306.4 120.2C308.0 121.7 309.9 120.4 310.1 117.8C310.2 116.0 310.3 116.1 307.7 116.5C304.9 116.9 302.9 112.7 304.5 109.7C305.2 108.3 307.2 106.9 308.3 107.0C308.8 107.0 309.8 107.1 310.5 107.1L311.8 107.2L312.1 110.3C312.5 115.1 312.3 119.7 311.6 120.8C310.5 122.5 308.0 123.4 306.5 122.7ZM277.8 119.6C277.8 119.4 277.6 117.1 277.5 114.5C277.4 111.9 277.2 108.8 277.1 107.6C276.9 105.5 276.9 105.4 277.8 104.8C279.4 103.8 282.6 103.8 284.0 104.7C287.6 107.2 285.8 112.5 281.2 113.2C279.0 113.5 278.9 113.8 279.1 116.7C279.2 118.4 279.2 119.4 278.9 119.6C278.4 120.1 278.0 120.1 277.8 119.6ZM287.8 118.2C287.8 118.0 287.6 116.1 287.5 113.9C287.3 109.5 287.5 108.7 288.7 109.4C289.3 109.7 289.7 109.6 290.7 109.0C291.7 108.5 292.1 108.4 292.7 108.7C293.7 109.2 293.5 109.9 292.1 110.5C289.8 111.4 289.7 111.8 289.7 115.0C289.7 117.8 289.4 118.7 288.4 118.7C288.2 118.7 287.9 118.5 287.8 118.2ZM295.7 117.1C292.1 113.9 295.4 106.3 299.6 108.0C303.1 109.4 303.8 114.4 300.8 117.0C299.2 118.4 297.1 118.4 295.7 117.1ZM299.8 115.2C300.7 114.3 301.0 112.2 300.3 111.0C298.9 108.3 295.6 110.4 296.1 113.6C296.5 115.9 298.4 116.7 299.8 115.2ZM314.6 115.1C314.5 114.6 314.4 112.6 314.4 110.5L314.5 106.8L315.7 106.8C316.3 106.8 317.2 106.6 317.7 106.2C318.9 105.5 319.8 105.6 319.9 106.6C320.0 107.1 319.8 107.4 318.9 107.8C317.1 108.5 316.7 109.4 316.7 112.4C316.7 114.3 316.5 115.1 316.1 115.5C315.4 116.2 315.0 116.1 314.6 115.1ZM323.8 114.9C320.6 113.4 320.1 109.2 322.8 106.4C324.1 105.2 324.4 105.0 325.8 105.0C327.7 105.0 329.3 106.3 329.3 107.9C329.3 109.5 328.4 110.0 324.2 110.8C323.1 111.1 323.1 111.8 324.2 112.6C325.2 113.4 326.2 113.5 327.3 112.8C328.6 112.1 329.3 112.2 329.3 113.1C329.3 113.8 329.0 114.1 327.9 114.6C326.2 115.4 325.3 115.5 323.8 114.9ZM309.1 114.0C311.0 112.5 310.5 109.2 308.4 109.2C306.9 109.2 305.9 110.4 305.9 112.1C305.9 114.4 307.5 115.3 309.1 114.0ZM331.9 113.9C331.5 113.7 331.3 113.2 331.4 112.8C331.5 112.3 331.8 112.2 333.2 112.3C336.2 112.5 336.5 110.9 333.7 109.6C330.8 108.4 330.2 106.5 332.0 104.6C333.1 103.5 335.3 103.3 336.5 104.1C337.5 104.9 336.9 105.7 335.2 105.7C333.8 105.7 332.7 106.3 333.1 107.0C333.3 107.1 334.2 107.7 335.1 108.1C337.5 109.2 338.2 110.2 337.7 111.8C337.0 113.9 333.6 115.1 331.9 113.9ZM340.0 113.1C338.7 112.0 339.3 111.2 341.2 111.5C344.2 112.0 344.7 110.1 341.8 108.8C338.7 107.4 338.2 104.9 340.7 103.3C342.0 102.6 343.3 102.5 344.2 103.1C345.1 103.8 344.6 104.7 343.2 104.7C342.0 104.7 340.8 105.4 341.1 106.0C341.3 106.2 342.1 106.7 342.9 107.1C345.6 108.5 346.4 110.0 345.5 111.7C344.4 113.5 341.5 114.3 340.0 113.1ZM281.8 111.2C283.9 110.3 284.7 108.0 283.3 106.6C282.8 106.1 282.3 106.0 280.9 106.1L279.2 106.2L279.1 108.5C279.0 109.7 279.0 111.0 279.1 111.2C279.4 111.8 280.4 111.8 281.8 111.2ZM326.8 107.8C326.8 107.0 325.6 106.8 324.5 107.5C323.2 108.3 323.5 108.7 325.2 108.6C326.6 108.5 326.8 108.4 326.8 107.8ZM315.7 98.3C314.3 97.0 315.3 95.8 317.1 96.8C318.8 97.8 320.7 96.3 320.7 93.9C320.7 92.6 320.2 92.1 319.6 92.6C318.1 93.8 315.7 93.0 314.7 91.0C313.4 88.5 314.0 85.9 316.2 84.1C317.3 83.1 317.6 83.1 319.6 83.2C322.1 83.3 322.1 83.3 322.2 85.2C322.2 86.1 322.4 88.3 322.6 90.2C323.3 96.2 321.8 99.0 317.8 99.0C316.8 99.0 316.1 98.8 315.7 98.3ZM299.1 95.6C298.7 95.5 298.3 95.0 298.2 94.6C297.9 93.3 297.3 81.7 297.5 81.2C297.8 80.5 300.1 79.7 301.5 79.7C305.0 79.7 307.0 82.8 305.3 85.5L304.6 86.7L306.0 87.9C308.0 89.9 307.7 92.3 305.3 94.1C303.5 95.4 300.4 96.1 299.1 95.6ZM303.2 93.0C306.5 91.5 305.6 88.3 301.9 88.3C299.8 88.3 299.7 88.5 299.7 91.0C299.7 92.2 299.8 93.3 299.9 93.4C300.3 93.9 301.8 93.7 303.2 93.0ZM309.8 92.9C309.7 92.5 309.7 90.6 309.7 88.7C309.8 85.3 309.9 85.2 310.6 85.1C311.6 84.9 311.7 85.7 311.6 90.0C311.5 93.3 311.5 93.5 310.8 93.6C310.2 93.7 310.0 93.5 309.8 92.9ZM319.0 91.0C319.4 90.8 319.9 90.2 320.2 89.7C321.7 86.7 319.2 83.5 317.0 85.8C314.9 88.1 316.5 92.3 319.0 91.0ZM302.6 85.8C304.5 84.6 304.1 82.0 302.0 82.0C301.5 82.0 300.9 81.9 300.6 81.8C299.7 81.5 299.2 82.2 299.3 84.0C299.3 85.0 299.5 86.0 299.7 86.3C300.2 86.8 301.4 86.6 302.6 85.8ZM309.5 81.5C309.3 80.8 309.9 80.0 310.5 80.0C311.0 80.0 311.5 81.2 311.2 81.7C310.8 82.2 309.8 82.1 309.5 81.5ZM317.2 75.1C316.7 74.7 316.7 73.7 316.7 67.4L316.8 60.2L318.0 60.1C318.6 60.0 319.3 59.8 319.5 59.6C320.0 59.1 322.4 59.3 323.3 60.0C324.6 60.9 325.1 62.3 324.9 64.5C324.7 67.4 323.0 69.3 320.2 69.6L318.8 69.8L318.7 72.4C318.6 75.2 318.1 76.1 317.2 75.1ZM288.7 73.4C287.9 73.1 287.5 72.5 287.4 72.1C287.3 71.1 288.1 70.8 289.2 71.5C291.2 72.8 294.3 71.3 294.3 69.1C294.3 68.2 293.5 67.5 291.3 66.7C287.8 65.4 286.4 63.2 287.5 60.8C288.7 58.3 291.8 57.0 293.9 58.1C295.8 59.1 295.2 60.8 293.3 60.0C291.5 59.2 289.3 60.5 289.3 62.3C289.3 63.5 290.1 64.1 292.3 64.8C294.8 65.6 296.3 67.2 296.3 68.9C296.3 70.7 295.2 72.3 293.3 73.2C291.6 74.2 290.2 74.2 288.7 73.4ZM300.9 72.0C299.9 71.4 299.3 69.5 299.3 67.0C299.3 64.8 299.3 64.7 298.3 64.2C297.2 63.6 297.3 62.8 298.5 62.3C299.1 62.1 299.3 61.7 299.4 60.6C299.5 59.4 299.6 59.1 300.2 59.1C300.9 59.0 301.0 59.2 301.2 60.3C301.4 61.5 301.5 61.6 302.6 61.7C304.3 61.9 304.3 63.0 302.8 63.5C301.2 64.0 301.2 64.1 301.3 66.9C301.4 70.0 301.7 70.4 303.2 70.1C304.2 70.0 304.3 70.0 304.3 70.6C304.3 71.9 302.3 72.8 300.9 72.0ZM307.9 70.8C306.9 70.2 305.7 67.9 305.7 66.3C305.7 63.4 308.7 60.3 311.1 60.8C312.6 61.1 314.0 62.6 314.0 63.9C314.0 65.3 312.8 66.1 310.1 66.7C308.0 67.1 307.5 67.8 308.6 68.7C309.6 69.5 311.0 69.5 312.5 68.8C314.8 67.7 314.9 69.5 312.6 70.7C311.1 71.4 309.2 71.5 307.9 70.8ZM327.7 68.4C326.5 67.4 327.0 66.5 328.5 66.8C331.6 67.3 332.3 65.4 329.5 64.1C327.2 63.0 326.7 62.4 326.7 61.1C326.7 59.9 328.3 58.2 329.8 57.8C331.1 57.5 332.7 58.3 332.6 59.1C332.5 59.7 332.2 59.9 330.8 60.0C329.3 60.1 329.2 60.2 329.2 61.0C329.2 61.6 329.4 61.9 330.6 62.2C332.2 62.8 333.7 64.3 333.7 65.5C333.7 67.9 329.5 69.9 327.7 68.4ZM2.2 68.3C1.5 67.9 1.5 66.6 2.1 66.0C2.4 65.8 11.6 65.6 35.0 65.6C69.1 65.5 69.5 65.5 69.3 66.9C69.2 67.5 68.4 67.7 64.2 68.3C61.2 68.8 3.0 68.7 2.2 68.3ZM321.1 67.3C323.0 66.4 323.6 63.3 322.2 61.8C320.5 60.1 318.3 61.9 318.3 64.8C318.3 67.4 319.2 68.2 321.1 67.3ZM74.7 64.6C74.5 64.3 74.3 62.6 74.3 59.0C74.3 55.3 74.2 53.6 73.9 53.5C73.7 53.3 72.2 53.2 70.5 53.2C68.9 53.1 66.5 52.9 65.2 52.8C64.0 52.6 60.1 52.6 56.4 52.7C52.8 52.8 39.1 52.9 26.1 52.7C0.7 52.5 1.1 52.6 2.5 51.0C3.1 50.4 3.6 50.3 10.6 50.3L18.0 50.3L18.0 27.7C18.0 5.4 18.0 5.0 18.7 4.3C19.5 3.5 19.8 3.5 20.7 4.3C21.4 5.0 21.4 5.3 21.3 27.7C21.3 42.7 21.4 50.5 21.6 50.8C21.9 51.1 23.7 51.0 42.8 50.4L49.2 50.2L49.3 45.0C49.4 42.2 49.4 39.6 49.3 39.3C49.0 38.8 46.3 38.3 43.3 38.3C41.2 38.2 35.3 38.9 34.9 39.3C34.7 39.5 34.5 41.3 34.4 44.5C34.4 49.3 34.3 50.0 33.6 50.0C32.9 50.0 32.3 47.6 32.1 43.2L31.9 38.7L33.2 37.5C33.8 36.9 34.7 36.2 35.0 35.9C35.5 35.4 35.6 35.2 35.3 34.4C34.8 33.1 35.2 31.8 36.7 30.3C38.5 28.4 39.4 29.1 38.0 31.4C37.6 32.0 37.3 33.1 37.3 33.7C37.3 35.7 38.1 36.0 43.0 36.0C47.8 36.0 50.6 36.7 51.6 38.2C52.3 39.4 52.0 47.7 51.2 49.3C50.4 50.8 50.6 50.9 55.4 51.1C57.7 51.2 61.1 51.4 63.0 51.5C66.1 51.7 66.6 51.7 67.1 51.2C67.6 50.7 67.7 48.9 67.7 27.8C67.7 5.4 67.7 5.0 68.3 4.3C69.2 3.5 69.7 3.5 70.5 4.3C71.0 4.9 71.0 6.8 71.1 27.7L71.2 50.5L72.2 50.8C76.7 52.1 76.8 52.4 76.8 58.7C76.7 64.5 76.2 66.0 74.7 64.6ZM311.6 64.2C312.3 63.6 311.6 62.7 310.5 62.7C309.6 62.7 308.0 63.9 308.0 64.6C308.0 65.3 310.8 65.0 311.6 64.2ZM287.0 50.1C284.7 48.9 284.8 47.1 287.1 47.9C289.1 48.6 290.6 48.4 291.7 47.4C293.5 45.5 292.7 44.0 289.3 42.7C284.8 41.0 284.2 37.4 288.1 34.6C289.4 33.6 292.0 33.6 293.0 34.5C294.3 35.7 293.6 37.0 292.0 36.1C290.6 35.4 289.4 35.6 288.3 36.7C286.5 38.6 287.3 40.1 290.6 41.1C294.2 42.3 295.8 45.6 293.8 48.0C291.8 50.4 289.1 51.2 287.0 50.1ZM297.4 48.2C297.1 47.9 297.0 46.4 297.1 43.6L297.2 39.5L298.3 39.5C299.0 39.4 299.9 39.2 300.5 38.9C301.0 38.6 301.5 38.4 301.6 38.4C301.7 38.5 302.3 38.7 302.8 39.0C303.5 39.4 303.8 39.4 304.3 39.1C306.0 37.8 306.9 37.6 308.0 38.0C309.6 38.7 310.1 40.0 310.1 43.7C310.2 46.7 310.1 46.8 309.4 46.9C308.6 47.1 308.4 46.7 308.2 43.2C308.1 42.0 307.9 40.8 307.7 40.5C306.4 39.0 304.7 41.1 304.7 44.2C304.7 46.6 304.1 47.7 303.2 47.0C302.8 46.7 302.7 46.0 302.7 44.8C302.7 41.2 301.2 39.6 299.7 41.5C299.1 42.3 299.0 42.9 299.0 44.9C299.0 48.1 298.4 49.4 297.4 48.2ZM313.2 45.8C312.0 44.6 312.1 43.3 313.4 42.2C314.5 41.3 315.7 41.1 315.7 41.8C315.7 42.0 315.4 42.4 315.2 42.7C314.4 43.3 314.7 44.5 315.6 44.6C316.5 44.7 318.3 43.5 318.3 42.8C318.3 42.5 318.0 42.2 317.5 42.0C316.4 41.6 316.5 41.4 317.6 40.3C318.3 39.5 318.4 39.2 318.1 38.7C317.7 38.0 316.2 38.1 315.3 38.8C315.0 39.1 314.5 39.3 314.1 39.3C313.0 39.3 313.2 38.2 314.4 37.2C316.0 36.1 316.8 35.9 318.2 36.5C319.6 37.1 320.3 38.6 320.3 41.0C320.3 41.9 320.6 43.2 320.9 43.8C321.7 45.5 321.3 46.1 319.7 45.8C318.7 45.7 318.1 45.8 317.6 46.1C316.4 47.0 314.2 46.8 313.2 45.8ZM324.5 44.5C323.5 43.1 323.0 30.2 323.8 29.4C324.9 28.3 325.2 29.5 325.4 36.4C325.6 41.6 325.7 42.8 326.2 43.3C326.9 44.1 326.7 45.1 325.8 45.3C325.3 45.3 324.9 45.1 324.5 44.5ZM330.1 43.8C329.5 42.9 329.1 37.9 329.0 32.1C329.0 29.7 329.1 29.0 329.5 28.6C330.7 27.7 331.0 29.0 331.0 35.3C331.0 40.6 331.1 41.3 331.7 42.5C332.1 43.2 332.3 44.0 332.2 44.2C331.9 45.0 330.7 44.7 330.1 43.8Z"/></svg>